<svg xmlns="http://www.w3.org/2000/svg" viewBox="0 0 1806.79 1212.32"><defs><style>.cls-1{fill:#e30613;}.cls-2{font-size:368.68px;font-family:Gadugi-Bold, Gadugi;font-weight:700;}.cls-2,.cls-3{fill:#fff;}.cls-3{font-size:226px;font-family:Gadugi;letter-spacing:0.3em;}</style></defs><g id="Ebene_2" data-name="Ebene 2"><g id="Ebene_1-2" data-name="Ebene 1"><path class="cls-1" d="M1555.44,9l-51.56,190.79q-12.32,45.87-21.71,81.88t-16,68.77c-4.36-9.28-8.89-18.83-13.51-28.65s-10-20.61-16-32.36-12.82-24.83-20.47-39.29-16.64-31.24-27-50.35L1316.37,61.41q-10.66-20.47-21.71-32.34a93.75,93.75,0,0,0-22.93-18.42,75.71,75.71,0,0,0-25-8.61,189.82,189.82,0,0,0-28.68-2,183.33,183.33,0,0,0-27.83,2c-1.45.23-2.88.49-4.29.82a75.39,75.39,0,0,0-20.68,7.79,86.91,86.91,0,0,0-22.51,18.42Q1132.13,41,1121.5,61.41l-46.22,86.26L1047.8,199q-28.66,53.22-46.26,88t-30.71,63.45q-6.54-33.56-15.15-68.77T934,199.79l-7.9-29.19H759.64l31.65,109.48,28.82,99.63,32,110.74q11.48,38.51,37.26,56.9a96.92,96.92,0,0,0,57.73,18.43q33.55,0,56.08-16t37.26-42.16L1128,352.08q18-31.93,31.12-55.68t23.33-43q10.23-19.24,18-34.8t14.35-30.29q7.35,14.73,15.15,30.29t18.41,34.8q10.65,19.23,23.75,43.4t31.11,56.09l87.62,154.75q15.52,27,38.06,42.58t55.26,15.54a96.88,96.88,0,0,0,57.73-18.43q25.82-18.39,37.26-56.9L1720.84,9Z"/><path class="cls-1" d="M278.36,0Q214.1,0,168,12.68T92.73,48.21Q63.57,71,49.61,103.61t-14,72.29q0,36.4,12.68,66.4a129.61,129.61,0,0,0,38.9,51.17q26.21,21.13,66,33t94.72,11.84H555.76q31.28,0,45.68,9.31t14.37,31.3q0,22-14.37,31.71t-45.68,9.73H127.83L15.35,565.78H542.23q64.26,0,110.37-12.68t75.69-36.37a137.57,137.57,0,0,0,43.12-58.36q13.15-33.66,13.5-75.38c0-.8,0-1.62,0-2.42q0-54.65-26.73-89.89a124.14,124.14,0,0,0-27.39-26.38q-54.14-38.48-158.15-38.5H264.83q-30.42,0-45.23-8.87t-14.82-30.88q0-22,14.82-30.43t45.23-8.46h781.33l9.41-12.31,45.2-84.39c8-15.41,16-27.53,24.55-37a122.66,122.66,0,0,1,14-13.44Z"/><text class="cls-2" transform="translate(0 912.87) scale(1.01 1)">BUSINESS</text><text class="cls-3" transform="translate(6.45 1158.69)">SOLUTIONS</text></g></g></svg>